<svg width="128" height="128" viewBox="0 0 128 128" fill="none" xmlns="http://www.w3.org/2000/svg">
<path d="M25.6168 115L41.13 83.4553L18.9714 18.3816C7.25953 29.9563 0 46.043 0 63.8288C0 84.7732 10.067 103.362 25.6168 115Z" fill="#00828C"/>
<path d="M37.4179 5.66815C45.4298 2.02734 54.3272 0 63.6971 0C69.6927 0 75.4995 0.831527 81 2.38325L54.6737 55.9155L40.7455 14.9617L37.4179 5.66815Z" fill="#00828C"/>
<path d="M64.3115 128C99.4857 128 128 99.2346 128 63.7506C128 41.8957 117.206 22.6061 100.68 11L91.3565 30.0879C99.7092 37.1372 105.389 46.8659 107.199 60.4729L95.0903 60.3795H76.5606L66.0252 81.9486L102.728 82.1316C92.2397 101.681 74.3904 108.843 54.3866 105.776L45 124.993C51.0911 126.946 57.5793 128 64.3115 128Z" fill="#DE3B21"/>
</svg>
